M48
; DRILL file {KiCad 5.1.5-52549c5~84~ubuntu18.04.1} date Tue 04 Feb 2020 09:08:44 PM EST
; FORMAT={-:-/ absolute / inch / decimal}
; #@! TF.CreationDate,2020-02-04T21:08:44-05:00
; #@! TF.GenerationSoftware,Kicad,Pcbnew,5.1.5-52549c5~84~ubuntu18.04.1
FMAT,2
INCH
T1C0.0315
T2C0.0394
T3C0.0433
T4C0.1063
%
G90
G05
T1
X1.05Y-1.3
X1.05Y-1.6
T2
X1.25Y-1.85
X1.35Y-1.85
X1.45Y-1.85
X1.55Y-1.85
X1.65Y-1.85
X1.75Y-1.85
X1.85Y-1.85
X1.95Y-1.85
X2.05Y-1.85
X2.15Y-1.85
X2.25Y-1.85
X2.35Y-1.85
X2.45Y-1.85
X2.55Y-1.85
X2.65Y-1.85
X2.75Y-1.85
X1.65Y-1.05
X1.75Y-1.05
X1.85Y-1.05
X1.95Y-1.05
X2.05Y-1.05
X2.15Y-1.05
X2.25Y-1.05
X2.35Y-1.05
X2.45Y-1.05
X2.55Y-1.05
X2.65Y-1.05
X2.75Y-1.05
T3
X1.55Y-1.6
X1.65Y-1.6
X1.75Y-1.6
X2.6Y-1.3
X2.7Y-1.3
X2.8Y-1.3
X1.2Y-1.3
X1.3Y-1.3
X1.4Y-1.3
X2.6Y-1.6
X2.7Y-1.6
X2.8Y-1.6
X2.25Y-1.3
X2.35Y-1.3
X2.45Y-1.3
X1.9Y-1.3
X2.0Y-1.3
X2.1Y-1.3
X2.25Y-1.6
X2.35Y-1.6
X2.45Y-1.6
X1.9Y-1.6
X2.0Y-1.6
X2.1Y-1.6
X1.2Y-1.6
X1.3Y-1.6
X1.4Y-1.6
X1.55Y-1.3
X1.65Y-1.3
X1.75Y-1.3
T4
X2.9Y-1.8
X1.1Y-1.8
X1.1Y-1.1
X2.9Y-1.1
T0
M30
