G04 #@! TF.GenerationSoftware,KiCad,Pcbnew,5.1.5-52549c5~84~ubuntu18.04.1*
G04 #@! TF.CreationDate,2020-02-04T21:08:12-05:00*
G04 #@! TF.ProjectId,FeatherWing_KC5,46656174-6865-4725-9769-6e675f4b4335,rev?*
G04 #@! TF.SameCoordinates,Original*
G04 #@! TF.FileFunction,Copper,L1,Top*
G04 #@! TF.FilePolarity,Positive*
%FSLAX46Y46*%
G04 Gerber Fmt 4.6, Leading zero omitted, Abs format (unit mm)*
G04 Created by KiCad (PCBNEW 5.1.5-52549c5~84~ubuntu18.04.1) date 2020-02-04 21:08:12*
%MOMM*%
%LPD*%
G04 APERTURE LIST*
%ADD10O,1.600000X1.600000*%
%ADD11C,1.600000*%
%ADD12C,2.100000*%
%ADD13R,2.100000X2.100000*%
%ADD14O,1.700000X1.700000*%
%ADD15R,1.700000X1.700000*%
%ADD16C,0.250000*%
G04 APERTURE END LIST*
D10*
X26670000Y-33020000D03*
D11*
X26670000Y-40640000D03*
D12*
X30480000Y-33020000D03*
X33020000Y-33020000D03*
D13*
X35560000Y-33020000D03*
D12*
X39370000Y-33020000D03*
X41910000Y-33020000D03*
D13*
X44450000Y-33020000D03*
D12*
X48260000Y-33020000D03*
X50800000Y-33020000D03*
D13*
X53340000Y-33020000D03*
D12*
X66040000Y-33020000D03*
X68580000Y-33020000D03*
D13*
X71120000Y-33020000D03*
D12*
X57150000Y-33020000D03*
X59690000Y-33020000D03*
D13*
X62230000Y-33020000D03*
D12*
X71120000Y-40640000D03*
X68580000Y-40640000D03*
D13*
X66040000Y-40640000D03*
D12*
X62230000Y-40640000D03*
X59690000Y-40640000D03*
D13*
X57150000Y-40640000D03*
D12*
X53340000Y-40640000D03*
X50800000Y-40640000D03*
D13*
X48260000Y-40640000D03*
D12*
X44450000Y-40640000D03*
X41910000Y-40640000D03*
D13*
X39370000Y-40640000D03*
D12*
X35560000Y-40640000D03*
X33020000Y-40640000D03*
D13*
X30480000Y-40640000D03*
D14*
X31750000Y-46990000D03*
X34290000Y-46990000D03*
X36830000Y-46990000D03*
X39370000Y-46990000D03*
X41910000Y-46990000D03*
X44450000Y-46990000D03*
X46990000Y-46990000D03*
X49530000Y-46990000D03*
X52070000Y-46990000D03*
X54610000Y-46990000D03*
X57150000Y-46990000D03*
X59690000Y-46990000D03*
X62230000Y-46990000D03*
X64770000Y-46990000D03*
X67310000Y-46990000D03*
D15*
X69850000Y-46990000D03*
D14*
X41910000Y-26670000D03*
X44450000Y-26670000D03*
X46990000Y-26670000D03*
X49530000Y-26670000D03*
X52070000Y-26670000D03*
X54610000Y-26670000D03*
X57150000Y-26670000D03*
X59690000Y-26670000D03*
X62230000Y-26670000D03*
X64770000Y-26670000D03*
X67310000Y-26670000D03*
D15*
X69850000Y-26670000D03*
D16*
X31297500Y-34742500D02*
X26670000Y-34742500D01*
X33020000Y-33020000D02*
X31297500Y-34742500D01*
X34069999Y-34215001D02*
X34069999Y-34069999D01*
X34249999Y-34395001D02*
X34069999Y-34215001D01*
X34069999Y-34069999D02*
X33020000Y-33020000D01*
X40534999Y-34395001D02*
X34249999Y-34395001D01*
X41910000Y-33020000D02*
X40534999Y-34395001D01*
X42959999Y-34215001D02*
X42959999Y-34069999D01*
X43139999Y-34395001D02*
X42959999Y-34215001D01*
X49424999Y-34395001D02*
X43139999Y-34395001D01*
X42959999Y-34069999D02*
X41910000Y-33020000D01*
X50800000Y-33020000D02*
X49424999Y-34395001D01*
X51849999Y-34215001D02*
X51849999Y-34069999D01*
X52029999Y-34395001D02*
X51849999Y-34215001D01*
X51849999Y-34069999D02*
X50800000Y-33020000D01*
X58314999Y-34395001D02*
X52029999Y-34395001D01*
X59690000Y-33020000D02*
X58314999Y-34395001D01*
X60739999Y-34215001D02*
X60739999Y-34069999D01*
X60739999Y-34069999D02*
X59690000Y-33020000D01*
X60919999Y-34395001D02*
X60739999Y-34215001D01*
X67204999Y-34395001D02*
X60919999Y-34395001D01*
X68580000Y-33020000D02*
X67204999Y-34395001D01*
X68580000Y-33020000D02*
X68580000Y-40640000D01*
X60739999Y-39590001D02*
X59690000Y-40640000D01*
X61065001Y-39264999D02*
X60739999Y-39590001D01*
X67350001Y-39264999D02*
X61065001Y-39264999D01*
X67530001Y-39444999D02*
X67350001Y-39264999D01*
X67530001Y-39590001D02*
X67530001Y-39444999D01*
X68580000Y-40640000D02*
X67530001Y-39590001D01*
X52175001Y-39264999D02*
X51849999Y-39590001D01*
X51849999Y-39590001D02*
X50800000Y-40640000D01*
X58460001Y-39264999D02*
X52175001Y-39264999D01*
X58640001Y-39444999D02*
X58460001Y-39264999D01*
X58640001Y-39590001D02*
X58640001Y-39444999D01*
X59690000Y-40640000D02*
X58640001Y-39590001D01*
X42959999Y-39590001D02*
X41910000Y-40640000D01*
X43285001Y-39264999D02*
X42959999Y-39590001D01*
X49570001Y-39264999D02*
X43285001Y-39264999D01*
X49750001Y-39444999D02*
X49570001Y-39264999D01*
X49750001Y-39590001D02*
X49750001Y-39444999D01*
X50800000Y-40640000D02*
X49750001Y-39590001D01*
X34069999Y-39590001D02*
X33020000Y-40640000D01*
X40680001Y-39264999D02*
X34395001Y-39264999D01*
X34395001Y-39264999D02*
X34069999Y-39590001D01*
X40860001Y-39444999D02*
X40680001Y-39264999D01*
X40860001Y-39590001D02*
X40860001Y-39444999D01*
X41910000Y-40640000D02*
X40860001Y-39590001D01*
X72945011Y-32160009D02*
X71265002Y-30480000D01*
X72945011Y-41486401D02*
X72945011Y-32160009D01*
X71966402Y-42465010D02*
X72945011Y-41486401D01*
X46434990Y-42465010D02*
X71966402Y-42465010D01*
X41910000Y-46990000D02*
X46434990Y-42465010D01*
X26670000Y-34742500D02*
X26670000Y-33020000D01*
X26670000Y-33020000D02*
X29210000Y-30480000D01*
X29210000Y-30480000D02*
X30480000Y-30480000D01*
X71265002Y-30480000D02*
X30480000Y-30480000D01*
X30480000Y-30480000D02*
X30932500Y-30480000D01*
X30480000Y-40640000D02*
X28392500Y-40640000D01*
X30555001Y-42015001D02*
X30480000Y-41940000D01*
X36694999Y-42015001D02*
X30555001Y-42015001D01*
X30480000Y-41940000D02*
X30480000Y-40640000D01*
X39370000Y-40640000D02*
X38070000Y-40640000D01*
X39370000Y-41940000D02*
X39370000Y-40640000D01*
X45584999Y-42015001D02*
X39445001Y-42015001D01*
X46960000Y-40640000D02*
X45584999Y-42015001D01*
X39445001Y-42015001D02*
X39370000Y-41940000D01*
X48260000Y-40640000D02*
X46960000Y-40640000D01*
X48260000Y-41940000D02*
X48260000Y-40640000D01*
X48335001Y-42015001D02*
X48260000Y-41940000D01*
X57074999Y-42015001D02*
X48335001Y-42015001D01*
X57150000Y-41940000D02*
X57074999Y-42015001D01*
X57150000Y-41940000D02*
X57150000Y-40640000D01*
X66040000Y-41940000D02*
X65964999Y-42015001D01*
X57225001Y-42015001D02*
X57150000Y-41940000D01*
X65964999Y-42015001D02*
X57225001Y-42015001D01*
X66040000Y-41940000D02*
X66040000Y-40640000D01*
X66115001Y-42015001D02*
X66040000Y-41940000D01*
X71780001Y-42015001D02*
X66115001Y-42015001D01*
X72495001Y-41300001D02*
X71780001Y-42015001D01*
X72495001Y-33095001D02*
X72495001Y-41300001D01*
X72420000Y-33020000D02*
X72495001Y-33095001D01*
X71120000Y-33020000D02*
X72420000Y-33020000D01*
X71120000Y-31720000D02*
X71120000Y-33020000D01*
X71044999Y-31644999D02*
X71120000Y-31720000D01*
X62305001Y-31644999D02*
X71044999Y-31644999D01*
X62230000Y-31720000D02*
X62305001Y-31644999D01*
X62230000Y-33020000D02*
X62230000Y-31720000D01*
X62154999Y-31644999D02*
X53415001Y-31644999D01*
X53415001Y-31644999D02*
X53340000Y-31720000D01*
X62230000Y-31720000D02*
X62154999Y-31644999D01*
X53340000Y-31720000D02*
X53340000Y-33020000D01*
X53264999Y-31644999D02*
X53340000Y-31720000D01*
X44525001Y-31644999D02*
X53264999Y-31644999D01*
X44450000Y-31720000D02*
X44525001Y-31644999D01*
X44450000Y-33020000D02*
X44450000Y-31720000D01*
X35635001Y-31644999D02*
X35560000Y-31720000D01*
X35560000Y-31720000D02*
X35560000Y-33020000D01*
X44374999Y-31644999D02*
X35635001Y-31644999D01*
X44450000Y-31720000D02*
X44374999Y-31644999D01*
X38070000Y-40640000D02*
X36694999Y-42015001D01*
X26670000Y-40640000D02*
X28392500Y-40640000D01*
X27940000Y-40640000D02*
X26670000Y-40640000D01*
X34290000Y-46990000D02*
X27940000Y-40640000D01*
M02*
