G04 #@! TF.GenerationSoftware,KiCad,Pcbnew,5.1.5-52549c5~84~ubuntu18.04.1*
G04 #@! TF.CreationDate,2020-02-04T21:08:12-05:00*
G04 #@! TF.ProjectId,FeatherWing_KC5,46656174-6865-4725-9769-6e675f4b4335,rev?*
G04 #@! TF.SameCoordinates,Original*
G04 #@! TF.FileFunction,Legend,Top*
G04 #@! TF.FilePolarity,Positive*
%FSLAX46Y46*%
G04 Gerber Fmt 4.6, Leading zero omitted, Abs format (unit mm)*
G04 Created by KiCad (PCBNEW 5.1.5-52549c5~84~ubuntu18.04.1) date 2020-02-04 21:08:12*
%MOMM*%
%LPD*%
G04 APERTURE LIST*
%ADD10C,0.100000*%
%ADD11C,0.125000*%
%ADD12C,0.150000*%
%ADD13C,0.120000*%
G04 APERTURE END LIST*
D10*
X29242380Y-26046190D02*
X29242380Y-25546190D01*
X29361428Y-25546190D01*
X29432857Y-25570000D01*
X29480476Y-25617619D01*
X29504285Y-25665238D01*
X29528095Y-25760476D01*
X29528095Y-25831904D01*
X29504285Y-25927142D01*
X29480476Y-25974761D01*
X29432857Y-26022380D01*
X29361428Y-26046190D01*
X29242380Y-26046190D01*
X29932857Y-26022380D02*
X29885238Y-26046190D01*
X29790000Y-26046190D01*
X29742380Y-26022380D01*
X29718571Y-25974761D01*
X29718571Y-25784285D01*
X29742380Y-25736666D01*
X29790000Y-25712857D01*
X29885238Y-25712857D01*
X29932857Y-25736666D01*
X29956666Y-25784285D01*
X29956666Y-25831904D01*
X29718571Y-25879523D01*
X30147142Y-26022380D02*
X30194761Y-26046190D01*
X30290000Y-26046190D01*
X30337619Y-26022380D01*
X30361428Y-25974761D01*
X30361428Y-25950952D01*
X30337619Y-25903333D01*
X30290000Y-25879523D01*
X30218571Y-25879523D01*
X30170952Y-25855714D01*
X30147142Y-25808095D01*
X30147142Y-25784285D01*
X30170952Y-25736666D01*
X30218571Y-25712857D01*
X30290000Y-25712857D01*
X30337619Y-25736666D01*
X30575714Y-26046190D02*
X30575714Y-25712857D01*
X30575714Y-25546190D02*
X30551904Y-25570000D01*
X30575714Y-25593809D01*
X30599523Y-25570000D01*
X30575714Y-25546190D01*
X30575714Y-25593809D01*
X31028095Y-25712857D02*
X31028095Y-26117619D01*
X31004285Y-26165238D01*
X30980476Y-26189047D01*
X30932857Y-26212857D01*
X30861428Y-26212857D01*
X30813809Y-26189047D01*
X31028095Y-26022380D02*
X30980476Y-26046190D01*
X30885238Y-26046190D01*
X30837619Y-26022380D01*
X30813809Y-25998571D01*
X30790000Y-25950952D01*
X30790000Y-25808095D01*
X30813809Y-25760476D01*
X30837619Y-25736666D01*
X30885238Y-25712857D01*
X30980476Y-25712857D01*
X31028095Y-25736666D01*
X31266190Y-25712857D02*
X31266190Y-26046190D01*
X31266190Y-25760476D02*
X31290000Y-25736666D01*
X31337619Y-25712857D01*
X31409047Y-25712857D01*
X31456666Y-25736666D01*
X31480476Y-25784285D01*
X31480476Y-26046190D01*
X31909047Y-26022380D02*
X31861428Y-26046190D01*
X31766190Y-26046190D01*
X31718571Y-26022380D01*
X31694761Y-25974761D01*
X31694761Y-25784285D01*
X31718571Y-25736666D01*
X31766190Y-25712857D01*
X31861428Y-25712857D01*
X31909047Y-25736666D01*
X31932857Y-25784285D01*
X31932857Y-25831904D01*
X31694761Y-25879523D01*
X32361428Y-26046190D02*
X32361428Y-25546190D01*
X32361428Y-26022380D02*
X32313809Y-26046190D01*
X32218571Y-26046190D01*
X32170952Y-26022380D01*
X32147142Y-25998571D01*
X32123333Y-25950952D01*
X32123333Y-25808095D01*
X32147142Y-25760476D01*
X32170952Y-25736666D01*
X32218571Y-25712857D01*
X32313809Y-25712857D01*
X32361428Y-25736666D01*
X32980476Y-26046190D02*
X32980476Y-25546190D01*
X32980476Y-25736666D02*
X33028095Y-25712857D01*
X33123333Y-25712857D01*
X33170952Y-25736666D01*
X33194761Y-25760476D01*
X33218571Y-25808095D01*
X33218571Y-25950952D01*
X33194761Y-25998571D01*
X33170952Y-26022380D01*
X33123333Y-26046190D01*
X33028095Y-26046190D01*
X32980476Y-26022380D01*
X33385238Y-25712857D02*
X33504285Y-26046190D01*
X33623333Y-25712857D02*
X33504285Y-26046190D01*
X33456666Y-26165238D01*
X33432857Y-26189047D01*
X33385238Y-26212857D01*
X33813809Y-25998571D02*
X33837619Y-26022380D01*
X33813809Y-26046190D01*
X33790000Y-26022380D01*
X33813809Y-25998571D01*
X33813809Y-26046190D01*
X33813809Y-25736666D02*
X33837619Y-25760476D01*
X33813809Y-25784285D01*
X33790000Y-25760476D01*
X33813809Y-25736666D01*
X33813809Y-25784285D01*
X34432857Y-26046190D02*
X34432857Y-25546190D01*
X34718571Y-26046190D02*
X34504285Y-25760476D01*
X34718571Y-25546190D02*
X34432857Y-25831904D01*
X35123333Y-26022380D02*
X35075714Y-26046190D01*
X34980476Y-26046190D01*
X34932857Y-26022380D01*
X34909047Y-25974761D01*
X34909047Y-25784285D01*
X34932857Y-25736666D01*
X34980476Y-25712857D01*
X35075714Y-25712857D01*
X35123333Y-25736666D01*
X35147142Y-25784285D01*
X35147142Y-25831904D01*
X34909047Y-25879523D01*
X35313809Y-25712857D02*
X35432857Y-26046190D01*
X35551904Y-25712857D01*
X35742380Y-26046190D02*
X35742380Y-25712857D01*
X35742380Y-25546190D02*
X35718571Y-25570000D01*
X35742380Y-25593809D01*
X35766190Y-25570000D01*
X35742380Y-25546190D01*
X35742380Y-25593809D01*
X35980476Y-25712857D02*
X35980476Y-26046190D01*
X35980476Y-25760476D02*
X36004285Y-25736666D01*
X36051904Y-25712857D01*
X36123333Y-25712857D01*
X36170952Y-25736666D01*
X36194761Y-25784285D01*
X36194761Y-26046190D01*
X36813809Y-26046190D02*
X36813809Y-25546190D01*
X36980476Y-25903333D01*
X37147142Y-25546190D01*
X37147142Y-26046190D01*
X37599523Y-26022380D02*
X37551904Y-26046190D01*
X37456666Y-26046190D01*
X37409047Y-26022380D01*
X37385238Y-25998571D01*
X37361428Y-25950952D01*
X37361428Y-25808095D01*
X37385238Y-25760476D01*
X37409047Y-25736666D01*
X37456666Y-25712857D01*
X37551904Y-25712857D01*
X37599523Y-25736666D01*
X38075714Y-25570000D02*
X38028095Y-25546190D01*
X37956666Y-25546190D01*
X37885238Y-25570000D01*
X37837619Y-25617619D01*
X37813809Y-25665238D01*
X37790000Y-25760476D01*
X37790000Y-25831904D01*
X37813809Y-25927142D01*
X37837619Y-25974761D01*
X37885238Y-26022380D01*
X37956666Y-26046190D01*
X38004285Y-26046190D01*
X38075714Y-26022380D01*
X38099523Y-25998571D01*
X38099523Y-25831904D01*
X38004285Y-25831904D01*
X38313809Y-26046190D02*
X38313809Y-25712857D01*
X38313809Y-25808095D02*
X38337619Y-25760476D01*
X38361428Y-25736666D01*
X38409047Y-25712857D01*
X38456666Y-25712857D01*
X38837619Y-26046190D02*
X38837619Y-25784285D01*
X38813809Y-25736666D01*
X38766190Y-25712857D01*
X38670952Y-25712857D01*
X38623333Y-25736666D01*
X38837619Y-26022380D02*
X38790000Y-26046190D01*
X38670952Y-26046190D01*
X38623333Y-26022380D01*
X38599523Y-25974761D01*
X38599523Y-25927142D01*
X38623333Y-25879523D01*
X38670952Y-25855714D01*
X38790000Y-25855714D01*
X38837619Y-25831904D01*
X39075714Y-26046190D02*
X39075714Y-25712857D01*
X39075714Y-25546190D02*
X39051904Y-25570000D01*
X39075714Y-25593809D01*
X39099523Y-25570000D01*
X39075714Y-25546190D01*
X39075714Y-25593809D01*
X39385238Y-26046190D02*
X39337619Y-26022380D01*
X39313809Y-25974761D01*
X39313809Y-25546190D01*
X30456666Y-26562857D02*
X30456666Y-26967619D01*
X30432857Y-27015238D01*
X30409047Y-27039047D01*
X30361428Y-27062857D01*
X30290000Y-27062857D01*
X30242380Y-27039047D01*
X30456666Y-26872380D02*
X30409047Y-26896190D01*
X30313809Y-26896190D01*
X30266190Y-26872380D01*
X30242380Y-26848571D01*
X30218571Y-26800952D01*
X30218571Y-26658095D01*
X30242380Y-26610476D01*
X30266190Y-26586666D01*
X30313809Y-26562857D01*
X30409047Y-26562857D01*
X30456666Y-26586666D01*
X30694761Y-26896190D02*
X30694761Y-26562857D01*
X30694761Y-26396190D02*
X30670952Y-26420000D01*
X30694761Y-26443809D01*
X30718571Y-26420000D01*
X30694761Y-26396190D01*
X30694761Y-26443809D01*
X30861428Y-26562857D02*
X31051904Y-26562857D01*
X30932857Y-26396190D02*
X30932857Y-26824761D01*
X30956666Y-26872380D01*
X31004285Y-26896190D01*
X31051904Y-26896190D01*
X31218571Y-26896190D02*
X31218571Y-26396190D01*
X31432857Y-26896190D02*
X31432857Y-26634285D01*
X31409047Y-26586666D01*
X31361428Y-26562857D01*
X31290000Y-26562857D01*
X31242380Y-26586666D01*
X31218571Y-26610476D01*
X31885238Y-26562857D02*
X31885238Y-26896190D01*
X31670952Y-26562857D02*
X31670952Y-26824761D01*
X31694761Y-26872380D01*
X31742380Y-26896190D01*
X31813809Y-26896190D01*
X31861428Y-26872380D01*
X31885238Y-26848571D01*
X32123333Y-26896190D02*
X32123333Y-26396190D01*
X32123333Y-26586666D02*
X32170952Y-26562857D01*
X32266190Y-26562857D01*
X32313809Y-26586666D01*
X32337619Y-26610476D01*
X32361428Y-26658095D01*
X32361428Y-26800952D01*
X32337619Y-26848571D01*
X32313809Y-26872380D01*
X32266190Y-26896190D01*
X32170952Y-26896190D01*
X32123333Y-26872380D01*
X32575714Y-26848571D02*
X32599523Y-26872380D01*
X32575714Y-26896190D01*
X32551904Y-26872380D01*
X32575714Y-26848571D01*
X32575714Y-26896190D01*
X33028095Y-26872380D02*
X32980476Y-26896190D01*
X32885238Y-26896190D01*
X32837619Y-26872380D01*
X32813809Y-26848571D01*
X32790000Y-26800952D01*
X32790000Y-26658095D01*
X32813809Y-26610476D01*
X32837619Y-26586666D01*
X32885238Y-26562857D01*
X32980476Y-26562857D01*
X33028095Y-26586666D01*
X33313809Y-26896190D02*
X33266190Y-26872380D01*
X33242380Y-26848571D01*
X33218571Y-26800952D01*
X33218571Y-26658095D01*
X33242380Y-26610476D01*
X33266190Y-26586666D01*
X33313809Y-26562857D01*
X33385238Y-26562857D01*
X33432857Y-26586666D01*
X33456666Y-26610476D01*
X33480476Y-26658095D01*
X33480476Y-26800952D01*
X33456666Y-26848571D01*
X33432857Y-26872380D01*
X33385238Y-26896190D01*
X33313809Y-26896190D01*
X33694761Y-26896190D02*
X33694761Y-26562857D01*
X33694761Y-26610476D02*
X33718571Y-26586666D01*
X33766190Y-26562857D01*
X33837619Y-26562857D01*
X33885238Y-26586666D01*
X33909047Y-26634285D01*
X33909047Y-26896190D01*
X33909047Y-26634285D02*
X33932857Y-26586666D01*
X33980476Y-26562857D01*
X34051904Y-26562857D01*
X34099523Y-26586666D01*
X34123333Y-26634285D01*
X34123333Y-26896190D01*
X34718571Y-26372380D02*
X34290000Y-27015238D01*
X34885238Y-26896190D02*
X34885238Y-26562857D01*
X34885238Y-26610476D02*
X34909047Y-26586666D01*
X34956666Y-26562857D01*
X35028095Y-26562857D01*
X35075714Y-26586666D01*
X35099523Y-26634285D01*
X35099523Y-26896190D01*
X35099523Y-26634285D02*
X35123333Y-26586666D01*
X35170952Y-26562857D01*
X35242380Y-26562857D01*
X35290000Y-26586666D01*
X35313809Y-26634285D01*
X35313809Y-26896190D01*
X35766190Y-26872380D02*
X35718571Y-26896190D01*
X35623333Y-26896190D01*
X35575714Y-26872380D01*
X35551904Y-26848571D01*
X35528095Y-26800952D01*
X35528095Y-26658095D01*
X35551904Y-26610476D01*
X35575714Y-26586666D01*
X35623333Y-26562857D01*
X35718571Y-26562857D01*
X35766190Y-26586666D01*
X36194761Y-26562857D02*
X36194761Y-26967619D01*
X36170952Y-27015238D01*
X36147142Y-27039047D01*
X36099523Y-27062857D01*
X36028095Y-27062857D01*
X35980476Y-27039047D01*
X36194761Y-26872380D02*
X36147142Y-26896190D01*
X36051904Y-26896190D01*
X36004285Y-26872380D01*
X35980476Y-26848571D01*
X35956666Y-26800952D01*
X35956666Y-26658095D01*
X35980476Y-26610476D01*
X36004285Y-26586666D01*
X36051904Y-26562857D01*
X36147142Y-26562857D01*
X36194761Y-26586666D01*
X36432857Y-26896190D02*
X36432857Y-26562857D01*
X36432857Y-26658095D02*
X36456666Y-26610476D01*
X36480476Y-26586666D01*
X36528095Y-26562857D01*
X36575714Y-26562857D01*
X36956666Y-26896190D02*
X36956666Y-26634285D01*
X36932857Y-26586666D01*
X36885238Y-26562857D01*
X36790000Y-26562857D01*
X36742380Y-26586666D01*
X36956666Y-26872380D02*
X36909047Y-26896190D01*
X36790000Y-26896190D01*
X36742380Y-26872380D01*
X36718571Y-26824761D01*
X36718571Y-26777142D01*
X36742380Y-26729523D01*
X36790000Y-26705714D01*
X36909047Y-26705714D01*
X36956666Y-26681904D01*
X37194761Y-26896190D02*
X37194761Y-26562857D01*
X37194761Y-26396190D02*
X37170952Y-26420000D01*
X37194761Y-26443809D01*
X37218571Y-26420000D01*
X37194761Y-26396190D01*
X37194761Y-26443809D01*
X37504285Y-26896190D02*
X37456666Y-26872380D01*
X37432857Y-26824761D01*
X37432857Y-26396190D01*
X37694761Y-26896190D02*
X37694761Y-26396190D01*
X37742380Y-26705714D02*
X37885238Y-26896190D01*
X37885238Y-26562857D02*
X37694761Y-26753333D01*
X38051904Y-26396190D02*
X38361428Y-26396190D01*
X38194761Y-26586666D01*
X38266190Y-26586666D01*
X38313809Y-26610476D01*
X38337619Y-26634285D01*
X38361428Y-26681904D01*
X38361428Y-26800952D01*
X38337619Y-26848571D01*
X38313809Y-26872380D01*
X38266190Y-26896190D01*
X38123333Y-26896190D01*
X38075714Y-26872380D01*
X38051904Y-26848571D01*
X32230476Y-27746190D02*
X32230476Y-27246190D01*
X32397142Y-27603333D01*
X32563809Y-27246190D01*
X32563809Y-27746190D01*
X32801904Y-27746190D02*
X32801904Y-27246190D01*
X32968571Y-27246190D02*
X33254285Y-27246190D01*
X33111428Y-27746190D02*
X33111428Y-27246190D01*
X34040000Y-27746190D02*
X33801904Y-27746190D01*
X33801904Y-27246190D01*
X34206666Y-27746190D02*
X34206666Y-27412857D01*
X34206666Y-27246190D02*
X34182857Y-27270000D01*
X34206666Y-27293809D01*
X34230476Y-27270000D01*
X34206666Y-27246190D01*
X34206666Y-27293809D01*
X34659047Y-27722380D02*
X34611428Y-27746190D01*
X34516190Y-27746190D01*
X34468571Y-27722380D01*
X34444761Y-27698571D01*
X34420952Y-27650952D01*
X34420952Y-27508095D01*
X34444761Y-27460476D01*
X34468571Y-27436666D01*
X34516190Y-27412857D01*
X34611428Y-27412857D01*
X34659047Y-27436666D01*
X35063809Y-27722380D02*
X35016190Y-27746190D01*
X34920952Y-27746190D01*
X34873333Y-27722380D01*
X34849523Y-27674761D01*
X34849523Y-27484285D01*
X34873333Y-27436666D01*
X34920952Y-27412857D01*
X35016190Y-27412857D01*
X35063809Y-27436666D01*
X35087619Y-27484285D01*
X35087619Y-27531904D01*
X34849523Y-27579523D01*
X35301904Y-27412857D02*
X35301904Y-27746190D01*
X35301904Y-27460476D02*
X35325714Y-27436666D01*
X35373333Y-27412857D01*
X35444761Y-27412857D01*
X35492380Y-27436666D01*
X35516190Y-27484285D01*
X35516190Y-27746190D01*
X35730476Y-27722380D02*
X35778095Y-27746190D01*
X35873333Y-27746190D01*
X35920952Y-27722380D01*
X35944761Y-27674761D01*
X35944761Y-27650952D01*
X35920952Y-27603333D01*
X35873333Y-27579523D01*
X35801904Y-27579523D01*
X35754285Y-27555714D01*
X35730476Y-27508095D01*
X35730476Y-27484285D01*
X35754285Y-27436666D01*
X35801904Y-27412857D01*
X35873333Y-27412857D01*
X35920952Y-27436666D01*
X36349523Y-27722380D02*
X36301904Y-27746190D01*
X36206666Y-27746190D01*
X36159047Y-27722380D01*
X36135238Y-27674761D01*
X36135238Y-27484285D01*
X36159047Y-27436666D01*
X36206666Y-27412857D01*
X36301904Y-27412857D01*
X36349523Y-27436666D01*
X36373333Y-27484285D01*
X36373333Y-27531904D01*
X36135238Y-27579523D01*
D11*
X75578809Y-30996666D02*
X76078809Y-30996666D01*
X76078809Y-31115714D01*
X76055000Y-31187142D01*
X76007380Y-31234761D01*
X75959761Y-31258571D01*
X75864523Y-31282380D01*
X75793095Y-31282380D01*
X75697857Y-31258571D01*
X75650238Y-31234761D01*
X75602619Y-31187142D01*
X75578809Y-31115714D01*
X75578809Y-30996666D01*
X75602619Y-31472857D02*
X75578809Y-31544285D01*
X75578809Y-31663333D01*
X75602619Y-31710952D01*
X75626428Y-31734761D01*
X75674047Y-31758571D01*
X75721666Y-31758571D01*
X75769285Y-31734761D01*
X75793095Y-31710952D01*
X75816904Y-31663333D01*
X75840714Y-31568095D01*
X75864523Y-31520476D01*
X75888333Y-31496666D01*
X75935952Y-31472857D01*
X75983571Y-31472857D01*
X76031190Y-31496666D01*
X76055000Y-31520476D01*
X76078809Y-31568095D01*
X76078809Y-31687142D01*
X76055000Y-31758571D01*
X75578809Y-32234761D02*
X75578809Y-31949047D01*
X75578809Y-32091904D02*
X76078809Y-32091904D01*
X76007380Y-32044285D01*
X75959761Y-31996666D01*
X75935952Y-31949047D01*
X75864523Y-32520476D02*
X75888333Y-32472857D01*
X75912142Y-32449047D01*
X75959761Y-32425238D01*
X75983571Y-32425238D01*
X76031190Y-32449047D01*
X76055000Y-32472857D01*
X76078809Y-32520476D01*
X76078809Y-32615714D01*
X76055000Y-32663333D01*
X76031190Y-32687142D01*
X75983571Y-32710952D01*
X75959761Y-32710952D01*
X75912142Y-32687142D01*
X75888333Y-32663333D01*
X75864523Y-32615714D01*
X75864523Y-32520476D01*
X75840714Y-32472857D01*
X75816904Y-32449047D01*
X75769285Y-32425238D01*
X75674047Y-32425238D01*
X75626428Y-32449047D01*
X75602619Y-32472857D01*
X75578809Y-32520476D01*
X75578809Y-32615714D01*
X75602619Y-32663333D01*
X75626428Y-32687142D01*
X75674047Y-32710952D01*
X75769285Y-32710952D01*
X75816904Y-32687142D01*
X75840714Y-32663333D01*
X75864523Y-32615714D01*
X75840714Y-33091904D02*
X75816904Y-33163333D01*
X75793095Y-33187142D01*
X75745476Y-33210952D01*
X75674047Y-33210952D01*
X75626428Y-33187142D01*
X75602619Y-33163333D01*
X75578809Y-33115714D01*
X75578809Y-32925238D01*
X76078809Y-32925238D01*
X76078809Y-33091904D01*
X76055000Y-33139523D01*
X76031190Y-33163333D01*
X75983571Y-33187142D01*
X75935952Y-33187142D01*
X75888333Y-33163333D01*
X75864523Y-33139523D01*
X75840714Y-33091904D01*
X75840714Y-32925238D01*
X76031190Y-33401428D02*
X76055000Y-33425238D01*
X76078809Y-33472857D01*
X76078809Y-33591904D01*
X76055000Y-33639523D01*
X76031190Y-33663333D01*
X75983571Y-33687142D01*
X75935952Y-33687142D01*
X75864523Y-33663333D01*
X75578809Y-33377619D01*
X75578809Y-33687142D01*
X76078809Y-33996666D02*
X76078809Y-34044285D01*
X76055000Y-34091904D01*
X76031190Y-34115714D01*
X75983571Y-34139523D01*
X75888333Y-34163333D01*
X75769285Y-34163333D01*
X75674047Y-34139523D01*
X75626428Y-34115714D01*
X75602619Y-34091904D01*
X75578809Y-34044285D01*
X75578809Y-33996666D01*
X75602619Y-33949047D01*
X75626428Y-33925238D01*
X75674047Y-33901428D01*
X75769285Y-33877619D01*
X75888333Y-33877619D01*
X75983571Y-33901428D01*
X76031190Y-33925238D01*
X76055000Y-33949047D01*
X76078809Y-33996666D01*
X75578809Y-34758571D02*
X76078809Y-34758571D01*
X75721666Y-34925238D01*
X76078809Y-35091904D01*
X75578809Y-35091904D01*
X75912142Y-35544285D02*
X75578809Y-35544285D01*
X75912142Y-35330000D02*
X75650238Y-35330000D01*
X75602619Y-35353809D01*
X75578809Y-35401428D01*
X75578809Y-35472857D01*
X75602619Y-35520476D01*
X75626428Y-35544285D01*
X75578809Y-35853809D02*
X75602619Y-35806190D01*
X75650238Y-35782380D01*
X76078809Y-35782380D01*
X75912142Y-35972857D02*
X75912142Y-36163333D01*
X76078809Y-36044285D02*
X75650238Y-36044285D01*
X75602619Y-36068095D01*
X75578809Y-36115714D01*
X75578809Y-36163333D01*
X75578809Y-36330000D02*
X75912142Y-36330000D01*
X76078809Y-36330000D02*
X76055000Y-36306190D01*
X76031190Y-36330000D01*
X76055000Y-36353809D01*
X76078809Y-36330000D01*
X76031190Y-36330000D01*
X75769285Y-36568095D02*
X75769285Y-36949047D01*
X75602619Y-37163333D02*
X75578809Y-37234761D01*
X75578809Y-37353809D01*
X75602619Y-37401428D01*
X75626428Y-37425238D01*
X75674047Y-37449047D01*
X75721666Y-37449047D01*
X75769285Y-37425238D01*
X75793095Y-37401428D01*
X75816904Y-37353809D01*
X75840714Y-37258571D01*
X75864523Y-37210952D01*
X75888333Y-37187142D01*
X75935952Y-37163333D01*
X75983571Y-37163333D01*
X76031190Y-37187142D01*
X76055000Y-37210952D01*
X76078809Y-37258571D01*
X76078809Y-37377619D01*
X76055000Y-37449047D01*
X75602619Y-37853809D02*
X75578809Y-37806190D01*
X75578809Y-37710952D01*
X75602619Y-37663333D01*
X75650238Y-37639523D01*
X75840714Y-37639523D01*
X75888333Y-37663333D01*
X75912142Y-37710952D01*
X75912142Y-37806190D01*
X75888333Y-37853809D01*
X75840714Y-37877619D01*
X75793095Y-37877619D01*
X75745476Y-37639523D01*
X75912142Y-38091904D02*
X75578809Y-38091904D01*
X75864523Y-38091904D02*
X75888333Y-38115714D01*
X75912142Y-38163333D01*
X75912142Y-38234761D01*
X75888333Y-38282380D01*
X75840714Y-38306190D01*
X75578809Y-38306190D01*
X75602619Y-38520476D02*
X75578809Y-38568095D01*
X75578809Y-38663333D01*
X75602619Y-38710952D01*
X75650238Y-38734761D01*
X75674047Y-38734761D01*
X75721666Y-38710952D01*
X75745476Y-38663333D01*
X75745476Y-38591904D01*
X75769285Y-38544285D01*
X75816904Y-38520476D01*
X75840714Y-38520476D01*
X75888333Y-38544285D01*
X75912142Y-38591904D01*
X75912142Y-38663333D01*
X75888333Y-38710952D01*
X75578809Y-39020476D02*
X75602619Y-38972857D01*
X75626428Y-38949047D01*
X75674047Y-38925238D01*
X75816904Y-38925238D01*
X75864523Y-38949047D01*
X75888333Y-38972857D01*
X75912142Y-39020476D01*
X75912142Y-39091904D01*
X75888333Y-39139523D01*
X75864523Y-39163333D01*
X75816904Y-39187142D01*
X75674047Y-39187142D01*
X75626428Y-39163333D01*
X75602619Y-39139523D01*
X75578809Y-39091904D01*
X75578809Y-39020476D01*
X75578809Y-39401428D02*
X75912142Y-39401428D01*
X75816904Y-39401428D02*
X75864523Y-39425238D01*
X75888333Y-39449047D01*
X75912142Y-39496666D01*
X75912142Y-39544285D01*
X75721666Y-40068095D02*
X75721666Y-40306190D01*
X75578809Y-40020476D02*
X76078809Y-40187142D01*
X75578809Y-40353809D01*
X75578809Y-40734761D02*
X76078809Y-40734761D01*
X75602619Y-40734761D02*
X75578809Y-40687142D01*
X75578809Y-40591904D01*
X75602619Y-40544285D01*
X75626428Y-40520476D01*
X75674047Y-40496666D01*
X75816904Y-40496666D01*
X75864523Y-40520476D01*
X75888333Y-40544285D01*
X75912142Y-40591904D01*
X75912142Y-40687142D01*
X75888333Y-40734761D01*
X75578809Y-41187142D02*
X75840714Y-41187142D01*
X75888333Y-41163333D01*
X75912142Y-41115714D01*
X75912142Y-41020476D01*
X75888333Y-40972857D01*
X75602619Y-41187142D02*
X75578809Y-41139523D01*
X75578809Y-41020476D01*
X75602619Y-40972857D01*
X75650238Y-40949047D01*
X75697857Y-40949047D01*
X75745476Y-40972857D01*
X75769285Y-41020476D01*
X75769285Y-41139523D01*
X75793095Y-41187142D01*
X75912142Y-41425238D02*
X75412142Y-41425238D01*
X75888333Y-41425238D02*
X75912142Y-41472857D01*
X75912142Y-41568095D01*
X75888333Y-41615714D01*
X75864523Y-41639523D01*
X75816904Y-41663333D01*
X75674047Y-41663333D01*
X75626428Y-41639523D01*
X75602619Y-41615714D01*
X75578809Y-41568095D01*
X75578809Y-41472857D01*
X75602619Y-41425238D01*
X75912142Y-41806190D02*
X75912142Y-41996666D01*
X76078809Y-41877619D02*
X75650238Y-41877619D01*
X75602619Y-41901428D01*
X75578809Y-41949047D01*
X75578809Y-41996666D01*
X75602619Y-42353809D02*
X75578809Y-42306190D01*
X75578809Y-42210952D01*
X75602619Y-42163333D01*
X75650238Y-42139523D01*
X75840714Y-42139523D01*
X75888333Y-42163333D01*
X75912142Y-42210952D01*
X75912142Y-42306190D01*
X75888333Y-42353809D01*
X75840714Y-42377619D01*
X75793095Y-42377619D01*
X75745476Y-42139523D01*
X75578809Y-42591904D02*
X75912142Y-42591904D01*
X75816904Y-42591904D02*
X75864523Y-42615714D01*
X75888333Y-42639523D01*
X75912142Y-42687142D01*
X75912142Y-42734761D01*
X74703809Y-34460952D02*
X74941904Y-34294285D01*
X74703809Y-34175238D02*
X75203809Y-34175238D01*
X75203809Y-34365714D01*
X75180000Y-34413333D01*
X75156190Y-34437142D01*
X75108571Y-34460952D01*
X75037142Y-34460952D01*
X74989523Y-34437142D01*
X74965714Y-34413333D01*
X74941904Y-34365714D01*
X74941904Y-34175238D01*
X74727619Y-34865714D02*
X74703809Y-34818095D01*
X74703809Y-34722857D01*
X74727619Y-34675238D01*
X74775238Y-34651428D01*
X74965714Y-34651428D01*
X75013333Y-34675238D01*
X75037142Y-34722857D01*
X75037142Y-34818095D01*
X75013333Y-34865714D01*
X74965714Y-34889523D01*
X74918095Y-34889523D01*
X74870476Y-34651428D01*
X75037142Y-35056190D02*
X74703809Y-35175238D01*
X75037142Y-35294285D01*
X74751428Y-35484761D02*
X74727619Y-35508571D01*
X74703809Y-35484761D01*
X74727619Y-35460952D01*
X74751428Y-35484761D01*
X74703809Y-35484761D01*
X75156190Y-36080000D02*
X75180000Y-36103809D01*
X75203809Y-36151428D01*
X75203809Y-36270476D01*
X75180000Y-36318095D01*
X75156190Y-36341904D01*
X75108571Y-36365714D01*
X75060952Y-36365714D01*
X74989523Y-36341904D01*
X74703809Y-36056190D01*
X74703809Y-36365714D01*
X74894285Y-36580000D02*
X74894285Y-36960952D01*
X74894285Y-37199047D02*
X74894285Y-37580000D01*
X75156190Y-37794285D02*
X75180000Y-37818095D01*
X75203809Y-37865714D01*
X75203809Y-37984761D01*
X75180000Y-38032380D01*
X75156190Y-38056190D01*
X75108571Y-38080000D01*
X75060952Y-38080000D01*
X74989523Y-38056190D01*
X74703809Y-37770476D01*
X74703809Y-38080000D01*
X75203809Y-38389523D02*
X75203809Y-38437142D01*
X75180000Y-38484761D01*
X75156190Y-38508571D01*
X75108571Y-38532380D01*
X75013333Y-38556190D01*
X74894285Y-38556190D01*
X74799047Y-38532380D01*
X74751428Y-38508571D01*
X74727619Y-38484761D01*
X74703809Y-38437142D01*
X74703809Y-38389523D01*
X74727619Y-38341904D01*
X74751428Y-38318095D01*
X74799047Y-38294285D01*
X74894285Y-38270476D01*
X75013333Y-38270476D01*
X75108571Y-38294285D01*
X75156190Y-38318095D01*
X75180000Y-38341904D01*
X75203809Y-38389523D01*
X75156190Y-38746666D02*
X75180000Y-38770476D01*
X75203809Y-38818095D01*
X75203809Y-38937142D01*
X75180000Y-38984761D01*
X75156190Y-39008571D01*
X75108571Y-39032380D01*
X75060952Y-39032380D01*
X74989523Y-39008571D01*
X74703809Y-38722857D01*
X74703809Y-39032380D01*
X75203809Y-39341904D02*
X75203809Y-39389523D01*
X75180000Y-39437142D01*
X75156190Y-39460952D01*
X75108571Y-39484761D01*
X75013333Y-39508571D01*
X74894285Y-39508571D01*
X74799047Y-39484761D01*
X74751428Y-39460952D01*
X74727619Y-39437142D01*
X74703809Y-39389523D01*
X74703809Y-39341904D01*
X74727619Y-39294285D01*
X74751428Y-39270476D01*
X74799047Y-39246666D01*
X74894285Y-39222857D01*
X75013333Y-39222857D01*
X75108571Y-39246666D01*
X75156190Y-39270476D01*
X75180000Y-39294285D01*
X75203809Y-39341904D01*
X73852619Y-30603809D02*
X73828809Y-30675238D01*
X73828809Y-30794285D01*
X73852619Y-30841904D01*
X73876428Y-30865714D01*
X73924047Y-30889523D01*
X73971666Y-30889523D01*
X74019285Y-30865714D01*
X74043095Y-30841904D01*
X74066904Y-30794285D01*
X74090714Y-30699047D01*
X74114523Y-30651428D01*
X74138333Y-30627619D01*
X74185952Y-30603809D01*
X74233571Y-30603809D01*
X74281190Y-30627619D01*
X74305000Y-30651428D01*
X74328809Y-30699047D01*
X74328809Y-30818095D01*
X74305000Y-30889523D01*
X74162142Y-31103809D02*
X73662142Y-31103809D01*
X74138333Y-31103809D02*
X74162142Y-31151428D01*
X74162142Y-31246666D01*
X74138333Y-31294285D01*
X74114523Y-31318095D01*
X74066904Y-31341904D01*
X73924047Y-31341904D01*
X73876428Y-31318095D01*
X73852619Y-31294285D01*
X73828809Y-31246666D01*
X73828809Y-31151428D01*
X73852619Y-31103809D01*
X73852619Y-31746666D02*
X73828809Y-31699047D01*
X73828809Y-31603809D01*
X73852619Y-31556190D01*
X73900238Y-31532380D01*
X74090714Y-31532380D01*
X74138333Y-31556190D01*
X74162142Y-31603809D01*
X74162142Y-31699047D01*
X74138333Y-31746666D01*
X74090714Y-31770476D01*
X74043095Y-31770476D01*
X73995476Y-31532380D01*
X73852619Y-32199047D02*
X73828809Y-32151428D01*
X73828809Y-32056190D01*
X73852619Y-32008571D01*
X73876428Y-31984761D01*
X73924047Y-31960952D01*
X74066904Y-31960952D01*
X74114523Y-31984761D01*
X74138333Y-32008571D01*
X74162142Y-32056190D01*
X74162142Y-32151428D01*
X74138333Y-32199047D01*
X73828809Y-32413333D02*
X74162142Y-32413333D01*
X74328809Y-32413333D02*
X74305000Y-32389523D01*
X74281190Y-32413333D01*
X74305000Y-32437142D01*
X74328809Y-32413333D01*
X74281190Y-32413333D01*
X73828809Y-32865714D02*
X74090714Y-32865714D01*
X74138333Y-32841904D01*
X74162142Y-32794285D01*
X74162142Y-32699047D01*
X74138333Y-32651428D01*
X73852619Y-32865714D02*
X73828809Y-32818095D01*
X73828809Y-32699047D01*
X73852619Y-32651428D01*
X73900238Y-32627619D01*
X73947857Y-32627619D01*
X73995476Y-32651428D01*
X74019285Y-32699047D01*
X74019285Y-32818095D01*
X74043095Y-32865714D01*
X73828809Y-33175238D02*
X73852619Y-33127619D01*
X73900238Y-33103809D01*
X74328809Y-33103809D01*
X74328809Y-33675238D02*
X74328809Y-33960952D01*
X73828809Y-33818095D02*
X74328809Y-33818095D01*
X73828809Y-34127619D02*
X74328809Y-34127619D01*
X73828809Y-34341904D02*
X74090714Y-34341904D01*
X74138333Y-34318095D01*
X74162142Y-34270476D01*
X74162142Y-34199047D01*
X74138333Y-34151428D01*
X74114523Y-34127619D01*
X73828809Y-34794285D02*
X74090714Y-34794285D01*
X74138333Y-34770476D01*
X74162142Y-34722857D01*
X74162142Y-34627619D01*
X74138333Y-34580000D01*
X73852619Y-34794285D02*
X73828809Y-34746666D01*
X73828809Y-34627619D01*
X73852619Y-34580000D01*
X73900238Y-34556190D01*
X73947857Y-34556190D01*
X73995476Y-34580000D01*
X74019285Y-34627619D01*
X74019285Y-34746666D01*
X74043095Y-34794285D01*
X74162142Y-35032380D02*
X73828809Y-35032380D01*
X74114523Y-35032380D02*
X74138333Y-35056190D01*
X74162142Y-35103809D01*
X74162142Y-35175238D01*
X74138333Y-35222857D01*
X74090714Y-35246666D01*
X73828809Y-35246666D01*
X73828809Y-35484761D02*
X74328809Y-35484761D01*
X74019285Y-35532380D02*
X73828809Y-35675238D01*
X74162142Y-35675238D02*
X73971666Y-35484761D01*
X73852619Y-35865714D02*
X73828809Y-35913333D01*
X73828809Y-36008571D01*
X73852619Y-36056190D01*
X73900238Y-36080000D01*
X73924047Y-36080000D01*
X73971666Y-36056190D01*
X73995476Y-36008571D01*
X73995476Y-35937142D01*
X74019285Y-35889523D01*
X74066904Y-35865714D01*
X74090714Y-35865714D01*
X74138333Y-35889523D01*
X74162142Y-35937142D01*
X74162142Y-36008571D01*
X74138333Y-36056190D01*
X73828809Y-36675238D02*
X74328809Y-36675238D01*
X74328809Y-36794285D01*
X74305000Y-36865714D01*
X74257380Y-36913333D01*
X74209761Y-36937142D01*
X74114523Y-36960952D01*
X74043095Y-36960952D01*
X73947857Y-36937142D01*
X73900238Y-36913333D01*
X73852619Y-36865714D01*
X73828809Y-36794285D01*
X73828809Y-36675238D01*
X73828809Y-37175238D02*
X74162142Y-37175238D01*
X74066904Y-37175238D02*
X74114523Y-37199047D01*
X74138333Y-37222857D01*
X74162142Y-37270476D01*
X74162142Y-37318095D01*
X73876428Y-37484761D02*
X73852619Y-37508571D01*
X73828809Y-37484761D01*
X73852619Y-37460952D01*
X73876428Y-37484761D01*
X73828809Y-37484761D01*
X73971666Y-38080000D02*
X73971666Y-38318095D01*
X73828809Y-38032380D02*
X74328809Y-38199047D01*
X73828809Y-38365714D01*
X74162142Y-38532380D02*
X73828809Y-38532380D01*
X74114523Y-38532380D02*
X74138333Y-38556190D01*
X74162142Y-38603809D01*
X74162142Y-38675238D01*
X74138333Y-38722857D01*
X74090714Y-38746666D01*
X73828809Y-38746666D01*
X73828809Y-39199047D02*
X74328809Y-39199047D01*
X73852619Y-39199047D02*
X73828809Y-39151428D01*
X73828809Y-39056190D01*
X73852619Y-39008571D01*
X73876428Y-38984761D01*
X73924047Y-38960952D01*
X74066904Y-38960952D01*
X74114523Y-38984761D01*
X74138333Y-39008571D01*
X74162142Y-39056190D01*
X74162142Y-39151428D01*
X74138333Y-39199047D01*
X73828809Y-39437142D02*
X74162142Y-39437142D01*
X74066904Y-39437142D02*
X74114523Y-39460952D01*
X74138333Y-39484761D01*
X74162142Y-39532380D01*
X74162142Y-39580000D01*
X73852619Y-39937142D02*
X73828809Y-39889523D01*
X73828809Y-39794285D01*
X73852619Y-39746666D01*
X73900238Y-39722857D01*
X74090714Y-39722857D01*
X74138333Y-39746666D01*
X74162142Y-39794285D01*
X74162142Y-39889523D01*
X74138333Y-39937142D01*
X74090714Y-39960952D01*
X74043095Y-39960952D01*
X73995476Y-39722857D01*
X74162142Y-40127619D02*
X73828809Y-40222857D01*
X74066904Y-40318095D01*
X73828809Y-40413333D01*
X74162142Y-40508571D01*
X73828809Y-41365714D02*
X74066904Y-41199047D01*
X73828809Y-41080000D02*
X74328809Y-41080000D01*
X74328809Y-41270476D01*
X74305000Y-41318095D01*
X74281190Y-41341904D01*
X74233571Y-41365714D01*
X74162142Y-41365714D01*
X74114523Y-41341904D01*
X74090714Y-41318095D01*
X74066904Y-41270476D01*
X74066904Y-41080000D01*
X73852619Y-41770476D02*
X73828809Y-41722857D01*
X73828809Y-41627619D01*
X73852619Y-41580000D01*
X73900238Y-41556190D01*
X74090714Y-41556190D01*
X74138333Y-41580000D01*
X74162142Y-41627619D01*
X74162142Y-41722857D01*
X74138333Y-41770476D01*
X74090714Y-41794285D01*
X74043095Y-41794285D01*
X73995476Y-41556190D01*
X74162142Y-41937142D02*
X74162142Y-42127619D01*
X74328809Y-42008571D02*
X73900238Y-42008571D01*
X73852619Y-42032380D01*
X73828809Y-42080000D01*
X73828809Y-42127619D01*
X74162142Y-42222857D02*
X74162142Y-42413333D01*
X74328809Y-42294285D02*
X73900238Y-42294285D01*
X73852619Y-42318095D01*
X73828809Y-42365714D01*
X73828809Y-42413333D01*
X73828809Y-42580000D02*
X74162142Y-42580000D01*
X74328809Y-42580000D02*
X74305000Y-42556190D01*
X74281190Y-42580000D01*
X74305000Y-42603809D01*
X74328809Y-42580000D01*
X74281190Y-42580000D01*
X74162142Y-43032380D02*
X73757380Y-43032380D01*
X73709761Y-43008571D01*
X73685952Y-42984761D01*
X73662142Y-42937142D01*
X73662142Y-42865714D01*
X73685952Y-42818095D01*
X73852619Y-43032380D02*
X73828809Y-42984761D01*
X73828809Y-42889523D01*
X73852619Y-42841904D01*
X73876428Y-42818095D01*
X73924047Y-42794285D01*
X74066904Y-42794285D01*
X74114523Y-42818095D01*
X74138333Y-42841904D01*
X74162142Y-42889523D01*
X74162142Y-42984761D01*
X74138333Y-43032380D01*
D10*
X46359047Y-28301190D02*
X46359047Y-28705952D01*
X46382857Y-28753571D01*
X46406666Y-28777380D01*
X46454285Y-28801190D01*
X46549523Y-28801190D01*
X46597142Y-28777380D01*
X46620952Y-28753571D01*
X46644761Y-28705952D01*
X46644761Y-28301190D01*
X46859047Y-28777380D02*
X46930476Y-28801190D01*
X47049523Y-28801190D01*
X47097142Y-28777380D01*
X47120952Y-28753571D01*
X47144761Y-28705952D01*
X47144761Y-28658333D01*
X47120952Y-28610714D01*
X47097142Y-28586904D01*
X47049523Y-28563095D01*
X46954285Y-28539285D01*
X46906666Y-28515476D01*
X46882857Y-28491666D01*
X46859047Y-28444047D01*
X46859047Y-28396428D01*
X46882857Y-28348809D01*
X46906666Y-28325000D01*
X46954285Y-28301190D01*
X47073333Y-28301190D01*
X47144761Y-28325000D01*
X47525714Y-28539285D02*
X47597142Y-28563095D01*
X47620952Y-28586904D01*
X47644761Y-28634523D01*
X47644761Y-28705952D01*
X47620952Y-28753571D01*
X47597142Y-28777380D01*
X47549523Y-28801190D01*
X47359047Y-28801190D01*
X47359047Y-28301190D01*
X47525714Y-28301190D01*
X47573333Y-28325000D01*
X47597142Y-28348809D01*
X47620952Y-28396428D01*
X47620952Y-28444047D01*
X47597142Y-28491666D01*
X47573333Y-28515476D01*
X47525714Y-28539285D01*
X47359047Y-28539285D01*
X41576666Y-28539285D02*
X41648095Y-28563095D01*
X41671904Y-28586904D01*
X41695714Y-28634523D01*
X41695714Y-28705952D01*
X41671904Y-28753571D01*
X41648095Y-28777380D01*
X41600476Y-28801190D01*
X41410000Y-28801190D01*
X41410000Y-28301190D01*
X41576666Y-28301190D01*
X41624285Y-28325000D01*
X41648095Y-28348809D01*
X41671904Y-28396428D01*
X41671904Y-28444047D01*
X41648095Y-28491666D01*
X41624285Y-28515476D01*
X41576666Y-28539285D01*
X41410000Y-28539285D01*
X42124285Y-28801190D02*
X42124285Y-28539285D01*
X42100476Y-28491666D01*
X42052857Y-28467857D01*
X41957619Y-28467857D01*
X41910000Y-28491666D01*
X42124285Y-28777380D02*
X42076666Y-28801190D01*
X41957619Y-28801190D01*
X41910000Y-28777380D01*
X41886190Y-28729761D01*
X41886190Y-28682142D01*
X41910000Y-28634523D01*
X41957619Y-28610714D01*
X42076666Y-28610714D01*
X42124285Y-28586904D01*
X42290952Y-28467857D02*
X42481428Y-28467857D01*
X42362380Y-28301190D02*
X42362380Y-28729761D01*
X42386190Y-28777380D01*
X42433809Y-28801190D01*
X42481428Y-28801190D01*
D12*
X43896428Y-28521428D02*
X44146428Y-28521428D01*
X44253571Y-28914285D02*
X43896428Y-28914285D01*
X43896428Y-28164285D01*
X44253571Y-28164285D01*
X44575000Y-28914285D02*
X44575000Y-28164285D01*
X45003571Y-28914285D01*
X45003571Y-28164285D01*
X49387142Y-28914285D02*
X48958571Y-28914285D01*
X49172857Y-28914285D02*
X49172857Y-28164285D01*
X49101428Y-28271428D01*
X49030000Y-28342857D01*
X48958571Y-28378571D01*
X49637142Y-28164285D02*
X50101428Y-28164285D01*
X49851428Y-28450000D01*
X49958571Y-28450000D01*
X50030000Y-28485714D01*
X50065714Y-28521428D01*
X50101428Y-28592857D01*
X50101428Y-28771428D01*
X50065714Y-28842857D01*
X50030000Y-28878571D01*
X49958571Y-28914285D01*
X49744285Y-28914285D01*
X49672857Y-28878571D01*
X49637142Y-28842857D01*
X51927142Y-28914285D02*
X51498571Y-28914285D01*
X51712857Y-28914285D02*
X51712857Y-28164285D01*
X51641428Y-28271428D01*
X51570000Y-28342857D01*
X51498571Y-28378571D01*
X52212857Y-28235714D02*
X52248571Y-28200000D01*
X52320000Y-28164285D01*
X52498571Y-28164285D01*
X52570000Y-28200000D01*
X52605714Y-28235714D01*
X52641428Y-28307142D01*
X52641428Y-28378571D01*
X52605714Y-28485714D01*
X52177142Y-28914285D01*
X52641428Y-28914285D01*
X54467142Y-28914285D02*
X54038571Y-28914285D01*
X54252857Y-28914285D02*
X54252857Y-28164285D01*
X54181428Y-28271428D01*
X54110000Y-28342857D01*
X54038571Y-28378571D01*
X55181428Y-28914285D02*
X54752857Y-28914285D01*
X54967142Y-28914285D02*
X54967142Y-28164285D01*
X54895714Y-28271428D01*
X54824285Y-28342857D01*
X54752857Y-28378571D01*
X57007142Y-28914285D02*
X56578571Y-28914285D01*
X56792857Y-28914285D02*
X56792857Y-28164285D01*
X56721428Y-28271428D01*
X56650000Y-28342857D01*
X56578571Y-28378571D01*
X57471428Y-28164285D02*
X57542857Y-28164285D01*
X57614285Y-28200000D01*
X57650000Y-28235714D01*
X57685714Y-28307142D01*
X57721428Y-28450000D01*
X57721428Y-28628571D01*
X57685714Y-28771428D01*
X57650000Y-28842857D01*
X57614285Y-28878571D01*
X57542857Y-28914285D01*
X57471428Y-28914285D01*
X57400000Y-28878571D01*
X57364285Y-28842857D01*
X57328571Y-28771428D01*
X57292857Y-28628571D01*
X57292857Y-28450000D01*
X57328571Y-28307142D01*
X57364285Y-28235714D01*
X57400000Y-28200000D01*
X57471428Y-28164285D01*
X59547142Y-28914285D02*
X59690000Y-28914285D01*
X59761428Y-28878571D01*
X59797142Y-28842857D01*
X59868571Y-28735714D01*
X59904285Y-28592857D01*
X59904285Y-28307142D01*
X59868571Y-28235714D01*
X59832857Y-28200000D01*
X59761428Y-28164285D01*
X59618571Y-28164285D01*
X59547142Y-28200000D01*
X59511428Y-28235714D01*
X59475714Y-28307142D01*
X59475714Y-28485714D01*
X59511428Y-28557142D01*
X59547142Y-28592857D01*
X59618571Y-28628571D01*
X59761428Y-28628571D01*
X59832857Y-28592857D01*
X59868571Y-28557142D01*
X59904285Y-28485714D01*
X62372857Y-28164285D02*
X62230000Y-28164285D01*
X62158571Y-28200000D01*
X62122857Y-28235714D01*
X62051428Y-28342857D01*
X62015714Y-28485714D01*
X62015714Y-28771428D01*
X62051428Y-28842857D01*
X62087142Y-28878571D01*
X62158571Y-28914285D01*
X62301428Y-28914285D01*
X62372857Y-28878571D01*
X62408571Y-28842857D01*
X62444285Y-28771428D01*
X62444285Y-28592857D01*
X62408571Y-28521428D01*
X62372857Y-28485714D01*
X62301428Y-28450000D01*
X62158571Y-28450000D01*
X62087142Y-28485714D01*
X62051428Y-28521428D01*
X62015714Y-28592857D01*
X64948571Y-28164285D02*
X64591428Y-28164285D01*
X64555714Y-28521428D01*
X64591428Y-28485714D01*
X64662857Y-28450000D01*
X64841428Y-28450000D01*
X64912857Y-28485714D01*
X64948571Y-28521428D01*
X64984285Y-28592857D01*
X64984285Y-28771428D01*
X64948571Y-28842857D01*
X64912857Y-28878571D01*
X64841428Y-28914285D01*
X64662857Y-28914285D01*
X64591428Y-28878571D01*
X64555714Y-28842857D01*
X66417142Y-28878571D02*
X66524285Y-28914285D01*
X66702857Y-28914285D01*
X66774285Y-28878571D01*
X66810000Y-28842857D01*
X66845714Y-28771428D01*
X66845714Y-28700000D01*
X66810000Y-28628571D01*
X66774285Y-28592857D01*
X66702857Y-28557142D01*
X66560000Y-28521428D01*
X66488571Y-28485714D01*
X66452857Y-28450000D01*
X66417142Y-28378571D01*
X66417142Y-28307142D01*
X66452857Y-28235714D01*
X66488571Y-28200000D01*
X66560000Y-28164285D01*
X66738571Y-28164285D01*
X66845714Y-28200000D01*
X67595714Y-28842857D02*
X67560000Y-28878571D01*
X67452857Y-28914285D01*
X67381428Y-28914285D01*
X67274285Y-28878571D01*
X67202857Y-28807142D01*
X67167142Y-28735714D01*
X67131428Y-28592857D01*
X67131428Y-28485714D01*
X67167142Y-28342857D01*
X67202857Y-28271428D01*
X67274285Y-28200000D01*
X67381428Y-28164285D01*
X67452857Y-28164285D01*
X67560000Y-28200000D01*
X67595714Y-28235714D01*
X68274285Y-28914285D02*
X67917142Y-28914285D01*
X67917142Y-28164285D01*
X68939285Y-28878571D02*
X69046428Y-28914285D01*
X69225000Y-28914285D01*
X69296428Y-28878571D01*
X69332142Y-28842857D01*
X69367857Y-28771428D01*
X69367857Y-28700000D01*
X69332142Y-28628571D01*
X69296428Y-28592857D01*
X69225000Y-28557142D01*
X69082142Y-28521428D01*
X69010714Y-28485714D01*
X68975000Y-28450000D01*
X68939285Y-28378571D01*
X68939285Y-28307142D01*
X68975000Y-28235714D01*
X69010714Y-28200000D01*
X69082142Y-28164285D01*
X69260714Y-28164285D01*
X69367857Y-28200000D01*
X69689285Y-28914285D02*
X69689285Y-28164285D01*
X69867857Y-28164285D01*
X69975000Y-28200000D01*
X70046428Y-28271428D01*
X70082142Y-28342857D01*
X70117857Y-28485714D01*
X70117857Y-28592857D01*
X70082142Y-28735714D01*
X70046428Y-28807142D01*
X69975000Y-28878571D01*
X69867857Y-28914285D01*
X69689285Y-28914285D01*
X70403571Y-28700000D02*
X70760714Y-28700000D01*
X70332142Y-28914285D02*
X70582142Y-28164285D01*
X70832142Y-28914285D01*
D10*
X69480952Y-45311190D02*
X69480952Y-44811190D01*
X69600000Y-44811190D01*
X69671428Y-44835000D01*
X69719047Y-44882619D01*
X69742857Y-44930238D01*
X69766666Y-45025476D01*
X69766666Y-45096904D01*
X69742857Y-45192142D01*
X69719047Y-45239761D01*
X69671428Y-45287380D01*
X69600000Y-45311190D01*
X69480952Y-45311190D01*
X70195238Y-44977857D02*
X70195238Y-45311190D01*
X70076190Y-44787380D02*
X69957142Y-45144523D01*
X70266666Y-45144523D01*
D12*
X66738571Y-44674285D02*
X67167142Y-44674285D01*
X66952857Y-45424285D02*
X66952857Y-44674285D01*
X67345714Y-44674285D02*
X67845714Y-45424285D01*
X67845714Y-44674285D02*
X67345714Y-45424285D01*
X64645000Y-45424285D02*
X64395000Y-45067142D01*
X64216428Y-45424285D02*
X64216428Y-44674285D01*
X64502142Y-44674285D01*
X64573571Y-44710000D01*
X64609285Y-44745714D01*
X64645000Y-44817142D01*
X64645000Y-44924285D01*
X64609285Y-44995714D01*
X64573571Y-45031428D01*
X64502142Y-45067142D01*
X64216428Y-45067142D01*
X64895000Y-44674285D02*
X65395000Y-45424285D01*
X65395000Y-44674285D02*
X64895000Y-45424285D01*
X61801428Y-45424285D02*
X61801428Y-44674285D01*
X62051428Y-45210000D01*
X62301428Y-44674285D01*
X62301428Y-45424285D01*
X62658571Y-45424285D02*
X62658571Y-44674285D01*
X59047142Y-45424285D02*
X59047142Y-44674285D01*
X59297142Y-45210000D01*
X59547142Y-44674285D01*
X59547142Y-45424285D01*
X60047142Y-44674285D02*
X60190000Y-44674285D01*
X60261428Y-44710000D01*
X60332857Y-44781428D01*
X60368571Y-44924285D01*
X60368571Y-45174285D01*
X60332857Y-45317142D01*
X60261428Y-45388571D01*
X60190000Y-45424285D01*
X60047142Y-45424285D01*
X59975714Y-45388571D01*
X59904285Y-45317142D01*
X59868571Y-45174285D01*
X59868571Y-44924285D01*
X59904285Y-44781428D01*
X59975714Y-44710000D01*
X60047142Y-44674285D01*
X56185714Y-45388571D02*
X56292857Y-45424285D01*
X56471428Y-45424285D01*
X56542857Y-45388571D01*
X56578571Y-45352857D01*
X56614285Y-45281428D01*
X56614285Y-45210000D01*
X56578571Y-45138571D01*
X56542857Y-45102857D01*
X56471428Y-45067142D01*
X56328571Y-45031428D01*
X56257142Y-44995714D01*
X56221428Y-44960000D01*
X56185714Y-44888571D01*
X56185714Y-44817142D01*
X56221428Y-44745714D01*
X56257142Y-44710000D01*
X56328571Y-44674285D01*
X56507142Y-44674285D01*
X56614285Y-44710000D01*
X57364285Y-45352857D02*
X57328571Y-45388571D01*
X57221428Y-45424285D01*
X57150000Y-45424285D01*
X57042857Y-45388571D01*
X56971428Y-45317142D01*
X56935714Y-45245714D01*
X56900000Y-45102857D01*
X56900000Y-44995714D01*
X56935714Y-44852857D01*
X56971428Y-44781428D01*
X57042857Y-44710000D01*
X57150000Y-44674285D01*
X57221428Y-44674285D01*
X57328571Y-44710000D01*
X57364285Y-44745714D01*
X57685714Y-45424285D02*
X57685714Y-44674285D01*
X58114285Y-45424285D02*
X57792857Y-44995714D01*
X58114285Y-44674285D02*
X57685714Y-45102857D01*
X54074285Y-45210000D02*
X54431428Y-45210000D01*
X54002857Y-45424285D02*
X54252857Y-44674285D01*
X54502857Y-45424285D01*
X55110000Y-44674285D02*
X54752857Y-44674285D01*
X54717142Y-45031428D01*
X54752857Y-44995714D01*
X54824285Y-44960000D01*
X55002857Y-44960000D01*
X55074285Y-44995714D01*
X55110000Y-45031428D01*
X55145714Y-45102857D01*
X55145714Y-45281428D01*
X55110000Y-45352857D01*
X55074285Y-45388571D01*
X55002857Y-45424285D01*
X54824285Y-45424285D01*
X54752857Y-45388571D01*
X54717142Y-45352857D01*
X51534285Y-45210000D02*
X51891428Y-45210000D01*
X51462857Y-45424285D02*
X51712857Y-44674285D01*
X51962857Y-45424285D01*
X52534285Y-44924285D02*
X52534285Y-45424285D01*
X52355714Y-44638571D02*
X52177142Y-45174285D01*
X52641428Y-45174285D01*
X48994285Y-45210000D02*
X49351428Y-45210000D01*
X48922857Y-45424285D02*
X49172857Y-44674285D01*
X49422857Y-45424285D01*
X49601428Y-44674285D02*
X50065714Y-44674285D01*
X49815714Y-44960000D01*
X49922857Y-44960000D01*
X49994285Y-44995714D01*
X50030000Y-45031428D01*
X50065714Y-45102857D01*
X50065714Y-45281428D01*
X50030000Y-45352857D01*
X49994285Y-45388571D01*
X49922857Y-45424285D01*
X49708571Y-45424285D01*
X49637142Y-45388571D01*
X49601428Y-45352857D01*
X46454285Y-45210000D02*
X46811428Y-45210000D01*
X46382857Y-45424285D02*
X46632857Y-44674285D01*
X46882857Y-45424285D01*
X47097142Y-44745714D02*
X47132857Y-44710000D01*
X47204285Y-44674285D01*
X47382857Y-44674285D01*
X47454285Y-44710000D01*
X47490000Y-44745714D01*
X47525714Y-44817142D01*
X47525714Y-44888571D01*
X47490000Y-44995714D01*
X47061428Y-45424285D01*
X47525714Y-45424285D01*
X43914285Y-45210000D02*
X44271428Y-45210000D01*
X43842857Y-45424285D02*
X44092857Y-44674285D01*
X44342857Y-45424285D01*
X44985714Y-45424285D02*
X44557142Y-45424285D01*
X44771428Y-45424285D02*
X44771428Y-44674285D01*
X44700000Y-44781428D01*
X44628571Y-44852857D01*
X44557142Y-44888571D01*
X41374285Y-45210000D02*
X41731428Y-45210000D01*
X41302857Y-45424285D02*
X41552857Y-44674285D01*
X41802857Y-45424285D01*
X42195714Y-44674285D02*
X42267142Y-44674285D01*
X42338571Y-44710000D01*
X42374285Y-44745714D01*
X42410000Y-44817142D01*
X42445714Y-44960000D01*
X42445714Y-45138571D01*
X42410000Y-45281428D01*
X42374285Y-45352857D01*
X42338571Y-45388571D01*
X42267142Y-45424285D01*
X42195714Y-45424285D01*
X42124285Y-45388571D01*
X42088571Y-45352857D01*
X42052857Y-45281428D01*
X42017142Y-45138571D01*
X42017142Y-44960000D01*
X42052857Y-44817142D01*
X42088571Y-44745714D01*
X42124285Y-44710000D01*
X42195714Y-44674285D01*
X38798571Y-44710000D02*
X38727142Y-44674285D01*
X38620000Y-44674285D01*
X38512857Y-44710000D01*
X38441428Y-44781428D01*
X38405714Y-44852857D01*
X38370000Y-44995714D01*
X38370000Y-45102857D01*
X38405714Y-45245714D01*
X38441428Y-45317142D01*
X38512857Y-45388571D01*
X38620000Y-45424285D01*
X38691428Y-45424285D01*
X38798571Y-45388571D01*
X38834285Y-45352857D01*
X38834285Y-45102857D01*
X38691428Y-45102857D01*
X39155714Y-45424285D02*
X39155714Y-44674285D01*
X39584285Y-45424285D01*
X39584285Y-44674285D01*
X39941428Y-45424285D02*
X39941428Y-44674285D01*
X40120000Y-44674285D01*
X40227142Y-44710000D01*
X40298571Y-44781428D01*
X40334285Y-44852857D01*
X40370000Y-44995714D01*
X40370000Y-45102857D01*
X40334285Y-45245714D01*
X40298571Y-45317142D01*
X40227142Y-45388571D01*
X40120000Y-45424285D01*
X39941428Y-45424285D01*
D10*
X36020476Y-45168333D02*
X36258571Y-45168333D01*
X35972857Y-45311190D02*
X36139523Y-44811190D01*
X36306190Y-45311190D01*
X36758571Y-45311190D02*
X36591904Y-45073095D01*
X36472857Y-45311190D02*
X36472857Y-44811190D01*
X36663333Y-44811190D01*
X36710952Y-44835000D01*
X36734761Y-44858809D01*
X36758571Y-44906428D01*
X36758571Y-44977857D01*
X36734761Y-45025476D01*
X36710952Y-45049285D01*
X36663333Y-45073095D01*
X36472857Y-45073095D01*
X36972857Y-45049285D02*
X37139523Y-45049285D01*
X37210952Y-45311190D02*
X36972857Y-45311190D01*
X36972857Y-44811190D01*
X37210952Y-44811190D01*
X37591904Y-45049285D02*
X37425238Y-45049285D01*
X37425238Y-45311190D02*
X37425238Y-44811190D01*
X37663333Y-44811190D01*
D12*
X33718571Y-44674285D02*
X34182857Y-44674285D01*
X33932857Y-44960000D01*
X34040000Y-44960000D01*
X34111428Y-44995714D01*
X34147142Y-45031428D01*
X34182857Y-45102857D01*
X34182857Y-45281428D01*
X34147142Y-45352857D01*
X34111428Y-45388571D01*
X34040000Y-45424285D01*
X33825714Y-45424285D01*
X33754285Y-45388571D01*
X33718571Y-45352857D01*
X34397142Y-44674285D02*
X34647142Y-45424285D01*
X34897142Y-44674285D01*
X31464285Y-45424285D02*
X31214285Y-45067142D01*
X31035714Y-45424285D02*
X31035714Y-44674285D01*
X31321428Y-44674285D01*
X31392857Y-44710000D01*
X31428571Y-44745714D01*
X31464285Y-44817142D01*
X31464285Y-44924285D01*
X31428571Y-44995714D01*
X31392857Y-45031428D01*
X31321428Y-45067142D01*
X31035714Y-45067142D01*
X31750000Y-45388571D02*
X31821428Y-45424285D01*
X31964285Y-45424285D01*
X32035714Y-45388571D01*
X32071428Y-45317142D01*
X32071428Y-45281428D01*
X32035714Y-45210000D01*
X31964285Y-45174285D01*
X31857142Y-45174285D01*
X31785714Y-45138571D01*
X31750000Y-45067142D01*
X31750000Y-45031428D01*
X31785714Y-44960000D01*
X31857142Y-44924285D01*
X31964285Y-44924285D01*
X32035714Y-44960000D01*
X32285714Y-44924285D02*
X32571428Y-44924285D01*
X32392857Y-44674285D02*
X32392857Y-45317142D01*
X32428571Y-45388571D01*
X32500000Y-45424285D01*
X32571428Y-45424285D01*
D13*
X28040000Y-33560000D02*
X27710000Y-33560000D01*
X28040000Y-40100000D02*
X28040000Y-33560000D01*
X27710000Y-40100000D02*
X28040000Y-40100000D01*
X25300000Y-33560000D02*
X25630000Y-33560000D01*
X25300000Y-40100000D02*
X25300000Y-33560000D01*
X25630000Y-40100000D02*
X25300000Y-40100000D01*
X37420000Y-29410000D02*
X37020000Y-29410000D01*
X37420000Y-30050000D02*
X37420000Y-29410000D01*
X28860000Y-36390000D02*
X28860000Y-29650000D01*
X37180000Y-36390000D02*
X37180000Y-29650000D01*
X37180000Y-29650000D02*
X28860000Y-29650000D01*
X37180000Y-36390000D02*
X28860000Y-36390000D01*
X37180000Y-35270000D02*
X28860000Y-35270000D01*
X37180000Y-30170000D02*
X28860000Y-30170000D01*
X46310000Y-29410000D02*
X45910000Y-29410000D01*
X46310000Y-30050000D02*
X46310000Y-29410000D01*
X37750000Y-36390000D02*
X37750000Y-29650000D01*
X46070000Y-36390000D02*
X46070000Y-29650000D01*
X46070000Y-29650000D02*
X37750000Y-29650000D01*
X46070000Y-36390000D02*
X37750000Y-36390000D01*
X46070000Y-35270000D02*
X37750000Y-35270000D01*
X46070000Y-30170000D02*
X37750000Y-30170000D01*
X55200000Y-29410000D02*
X54800000Y-29410000D01*
X55200000Y-30050000D02*
X55200000Y-29410000D01*
X46640000Y-36390000D02*
X46640000Y-29650000D01*
X54960000Y-36390000D02*
X54960000Y-29650000D01*
X54960000Y-29650000D02*
X46640000Y-29650000D01*
X54960000Y-36390000D02*
X46640000Y-36390000D01*
X54960000Y-35270000D02*
X46640000Y-35270000D01*
X54960000Y-30170000D02*
X46640000Y-30170000D01*
X72980000Y-29410000D02*
X72580000Y-29410000D01*
X72980000Y-30050000D02*
X72980000Y-29410000D01*
X64420000Y-36390000D02*
X64420000Y-29650000D01*
X72740000Y-36390000D02*
X72740000Y-29650000D01*
X72740000Y-29650000D02*
X64420000Y-29650000D01*
X72740000Y-36390000D02*
X64420000Y-36390000D01*
X72740000Y-35270000D02*
X64420000Y-35270000D01*
X72740000Y-30170000D02*
X64420000Y-30170000D01*
X64090000Y-29410000D02*
X63690000Y-29410000D01*
X64090000Y-30050000D02*
X64090000Y-29410000D01*
X55530000Y-36390000D02*
X55530000Y-29650000D01*
X63850000Y-36390000D02*
X63850000Y-29650000D01*
X63850000Y-29650000D02*
X55530000Y-29650000D01*
X63850000Y-36390000D02*
X55530000Y-36390000D01*
X63850000Y-35270000D02*
X55530000Y-35270000D01*
X63850000Y-30170000D02*
X55530000Y-30170000D01*
X64180000Y-44250000D02*
X64580000Y-44250000D01*
X64180000Y-43610000D02*
X64180000Y-44250000D01*
X72740000Y-37270000D02*
X72740000Y-44010000D01*
X64420000Y-37270000D02*
X64420000Y-44010000D01*
X64420000Y-44010000D02*
X72740000Y-44010000D01*
X64420000Y-37270000D02*
X72740000Y-37270000D01*
X64420000Y-38390000D02*
X72740000Y-38390000D01*
X64420000Y-43490000D02*
X72740000Y-43490000D01*
X55290000Y-44250000D02*
X55690000Y-44250000D01*
X55290000Y-43610000D02*
X55290000Y-44250000D01*
X63850000Y-37270000D02*
X63850000Y-44010000D01*
X55530000Y-37270000D02*
X55530000Y-44010000D01*
X55530000Y-44010000D02*
X63850000Y-44010000D01*
X55530000Y-37270000D02*
X63850000Y-37270000D01*
X55530000Y-38390000D02*
X63850000Y-38390000D01*
X55530000Y-43490000D02*
X63850000Y-43490000D01*
X46400000Y-44250000D02*
X46800000Y-44250000D01*
X46400000Y-43610000D02*
X46400000Y-44250000D01*
X54960000Y-37270000D02*
X54960000Y-44010000D01*
X46640000Y-37270000D02*
X46640000Y-44010000D01*
X46640000Y-44010000D02*
X54960000Y-44010000D01*
X46640000Y-37270000D02*
X54960000Y-37270000D01*
X46640000Y-38390000D02*
X54960000Y-38390000D01*
X46640000Y-43490000D02*
X54960000Y-43490000D01*
X37510000Y-44250000D02*
X37910000Y-44250000D01*
X37510000Y-43610000D02*
X37510000Y-44250000D01*
X46070000Y-37270000D02*
X46070000Y-44010000D01*
X37750000Y-37270000D02*
X37750000Y-44010000D01*
X37750000Y-44010000D02*
X46070000Y-44010000D01*
X37750000Y-37270000D02*
X46070000Y-37270000D01*
X37750000Y-38390000D02*
X46070000Y-38390000D01*
X37750000Y-43490000D02*
X46070000Y-43490000D01*
X28620000Y-44250000D02*
X29020000Y-44250000D01*
X28620000Y-43610000D02*
X28620000Y-44250000D01*
X37180000Y-37270000D02*
X37180000Y-44010000D01*
X28860000Y-37270000D02*
X28860000Y-44010000D01*
X28860000Y-44010000D02*
X37180000Y-44010000D01*
X28860000Y-37270000D02*
X37180000Y-37270000D01*
X28860000Y-38390000D02*
X37180000Y-38390000D01*
X28860000Y-43490000D02*
X37180000Y-43490000D01*
D12*
X27122380Y-36996666D02*
X26646190Y-37330000D01*
X27122380Y-37568095D02*
X26122380Y-37568095D01*
X26122380Y-37187142D01*
X26170000Y-37091904D01*
X26217619Y-37044285D01*
X26312857Y-36996666D01*
X26455714Y-36996666D01*
X26550952Y-37044285D01*
X26598571Y-37091904D01*
X26646190Y-37187142D01*
X26646190Y-37568095D01*
X27122380Y-36044285D02*
X27122380Y-36615714D01*
X27122380Y-36330000D02*
X26122380Y-36330000D01*
X26265238Y-36425238D01*
X26360476Y-36520476D01*
X26408095Y-36615714D01*
X31781904Y-35964761D02*
X31924761Y-36012380D01*
X32162857Y-36012380D01*
X32258095Y-35964761D01*
X32305714Y-35917142D01*
X32353333Y-35821904D01*
X32353333Y-35726666D01*
X32305714Y-35631428D01*
X32258095Y-35583809D01*
X32162857Y-35536190D01*
X31972380Y-35488571D01*
X31877142Y-35440952D01*
X31829523Y-35393333D01*
X31781904Y-35298095D01*
X31781904Y-35202857D01*
X31829523Y-35107619D01*
X31877142Y-35060000D01*
X31972380Y-35012380D01*
X32210476Y-35012380D01*
X32353333Y-35060000D01*
X33305714Y-36012380D02*
X32734285Y-36012380D01*
X33020000Y-36012380D02*
X33020000Y-35012380D01*
X32924761Y-35155238D01*
X32829523Y-35250476D01*
X32734285Y-35298095D01*
X33924761Y-35012380D02*
X34020000Y-35012380D01*
X34115238Y-35060000D01*
X34162857Y-35107619D01*
X34210476Y-35202857D01*
X34258095Y-35393333D01*
X34258095Y-35631428D01*
X34210476Y-35821904D01*
X34162857Y-35917142D01*
X34115238Y-35964761D01*
X34020000Y-36012380D01*
X33924761Y-36012380D01*
X33829523Y-35964761D01*
X33781904Y-35917142D01*
X33734285Y-35821904D01*
X33686666Y-35631428D01*
X33686666Y-35393333D01*
X33734285Y-35202857D01*
X33781904Y-35107619D01*
X33829523Y-35060000D01*
X33924761Y-35012380D01*
X41148095Y-35964761D02*
X41290952Y-36012380D01*
X41529047Y-36012380D01*
X41624285Y-35964761D01*
X41671904Y-35917142D01*
X41719523Y-35821904D01*
X41719523Y-35726666D01*
X41671904Y-35631428D01*
X41624285Y-35583809D01*
X41529047Y-35536190D01*
X41338571Y-35488571D01*
X41243333Y-35440952D01*
X41195714Y-35393333D01*
X41148095Y-35298095D01*
X41148095Y-35202857D01*
X41195714Y-35107619D01*
X41243333Y-35060000D01*
X41338571Y-35012380D01*
X41576666Y-35012380D01*
X41719523Y-35060000D01*
X42195714Y-36012380D02*
X42386190Y-36012380D01*
X42481428Y-35964761D01*
X42529047Y-35917142D01*
X42624285Y-35774285D01*
X42671904Y-35583809D01*
X42671904Y-35202857D01*
X42624285Y-35107619D01*
X42576666Y-35060000D01*
X42481428Y-35012380D01*
X42290952Y-35012380D01*
X42195714Y-35060000D01*
X42148095Y-35107619D01*
X42100476Y-35202857D01*
X42100476Y-35440952D01*
X42148095Y-35536190D01*
X42195714Y-35583809D01*
X42290952Y-35631428D01*
X42481428Y-35631428D01*
X42576666Y-35583809D01*
X42624285Y-35536190D01*
X42671904Y-35440952D01*
X50038095Y-35964761D02*
X50180952Y-36012380D01*
X50419047Y-36012380D01*
X50514285Y-35964761D01*
X50561904Y-35917142D01*
X50609523Y-35821904D01*
X50609523Y-35726666D01*
X50561904Y-35631428D01*
X50514285Y-35583809D01*
X50419047Y-35536190D01*
X50228571Y-35488571D01*
X50133333Y-35440952D01*
X50085714Y-35393333D01*
X50038095Y-35298095D01*
X50038095Y-35202857D01*
X50085714Y-35107619D01*
X50133333Y-35060000D01*
X50228571Y-35012380D01*
X50466666Y-35012380D01*
X50609523Y-35060000D01*
X51180952Y-35440952D02*
X51085714Y-35393333D01*
X51038095Y-35345714D01*
X50990476Y-35250476D01*
X50990476Y-35202857D01*
X51038095Y-35107619D01*
X51085714Y-35060000D01*
X51180952Y-35012380D01*
X51371428Y-35012380D01*
X51466666Y-35060000D01*
X51514285Y-35107619D01*
X51561904Y-35202857D01*
X51561904Y-35250476D01*
X51514285Y-35345714D01*
X51466666Y-35393333D01*
X51371428Y-35440952D01*
X51180952Y-35440952D01*
X51085714Y-35488571D01*
X51038095Y-35536190D01*
X50990476Y-35631428D01*
X50990476Y-35821904D01*
X51038095Y-35917142D01*
X51085714Y-35964761D01*
X51180952Y-36012380D01*
X51371428Y-36012380D01*
X51466666Y-35964761D01*
X51514285Y-35917142D01*
X51561904Y-35821904D01*
X51561904Y-35631428D01*
X51514285Y-35536190D01*
X51466666Y-35488571D01*
X51371428Y-35440952D01*
X67818095Y-35964761D02*
X67960952Y-36012380D01*
X68199047Y-36012380D01*
X68294285Y-35964761D01*
X68341904Y-35917142D01*
X68389523Y-35821904D01*
X68389523Y-35726666D01*
X68341904Y-35631428D01*
X68294285Y-35583809D01*
X68199047Y-35536190D01*
X68008571Y-35488571D01*
X67913333Y-35440952D01*
X67865714Y-35393333D01*
X67818095Y-35298095D01*
X67818095Y-35202857D01*
X67865714Y-35107619D01*
X67913333Y-35060000D01*
X68008571Y-35012380D01*
X68246666Y-35012380D01*
X68389523Y-35060000D01*
X69246666Y-35012380D02*
X69056190Y-35012380D01*
X68960952Y-35060000D01*
X68913333Y-35107619D01*
X68818095Y-35250476D01*
X68770476Y-35440952D01*
X68770476Y-35821904D01*
X68818095Y-35917142D01*
X68865714Y-35964761D01*
X68960952Y-36012380D01*
X69151428Y-36012380D01*
X69246666Y-35964761D01*
X69294285Y-35917142D01*
X69341904Y-35821904D01*
X69341904Y-35583809D01*
X69294285Y-35488571D01*
X69246666Y-35440952D01*
X69151428Y-35393333D01*
X68960952Y-35393333D01*
X68865714Y-35440952D01*
X68818095Y-35488571D01*
X68770476Y-35583809D01*
X58928095Y-35964761D02*
X59070952Y-36012380D01*
X59309047Y-36012380D01*
X59404285Y-35964761D01*
X59451904Y-35917142D01*
X59499523Y-35821904D01*
X59499523Y-35726666D01*
X59451904Y-35631428D01*
X59404285Y-35583809D01*
X59309047Y-35536190D01*
X59118571Y-35488571D01*
X59023333Y-35440952D01*
X58975714Y-35393333D01*
X58928095Y-35298095D01*
X58928095Y-35202857D01*
X58975714Y-35107619D01*
X59023333Y-35060000D01*
X59118571Y-35012380D01*
X59356666Y-35012380D01*
X59499523Y-35060000D01*
X59832857Y-35012380D02*
X60499523Y-35012380D01*
X60070952Y-36012380D01*
X67818095Y-38504761D02*
X67960952Y-38552380D01*
X68199047Y-38552380D01*
X68294285Y-38504761D01*
X68341904Y-38457142D01*
X68389523Y-38361904D01*
X68389523Y-38266666D01*
X68341904Y-38171428D01*
X68294285Y-38123809D01*
X68199047Y-38076190D01*
X68008571Y-38028571D01*
X67913333Y-37980952D01*
X67865714Y-37933333D01*
X67818095Y-37838095D01*
X67818095Y-37742857D01*
X67865714Y-37647619D01*
X67913333Y-37600000D01*
X68008571Y-37552380D01*
X68246666Y-37552380D01*
X68389523Y-37600000D01*
X69294285Y-37552380D02*
X68818095Y-37552380D01*
X68770476Y-38028571D01*
X68818095Y-37980952D01*
X68913333Y-37933333D01*
X69151428Y-37933333D01*
X69246666Y-37980952D01*
X69294285Y-38028571D01*
X69341904Y-38123809D01*
X69341904Y-38361904D01*
X69294285Y-38457142D01*
X69246666Y-38504761D01*
X69151428Y-38552380D01*
X68913333Y-38552380D01*
X68818095Y-38504761D01*
X68770476Y-38457142D01*
X58928095Y-38504761D02*
X59070952Y-38552380D01*
X59309047Y-38552380D01*
X59404285Y-38504761D01*
X59451904Y-38457142D01*
X59499523Y-38361904D01*
X59499523Y-38266666D01*
X59451904Y-38171428D01*
X59404285Y-38123809D01*
X59309047Y-38076190D01*
X59118571Y-38028571D01*
X59023333Y-37980952D01*
X58975714Y-37933333D01*
X58928095Y-37838095D01*
X58928095Y-37742857D01*
X58975714Y-37647619D01*
X59023333Y-37600000D01*
X59118571Y-37552380D01*
X59356666Y-37552380D01*
X59499523Y-37600000D01*
X60356666Y-37885714D02*
X60356666Y-38552380D01*
X60118571Y-37504761D02*
X59880476Y-38219047D01*
X60499523Y-38219047D01*
X50038095Y-38504761D02*
X50180952Y-38552380D01*
X50419047Y-38552380D01*
X50514285Y-38504761D01*
X50561904Y-38457142D01*
X50609523Y-38361904D01*
X50609523Y-38266666D01*
X50561904Y-38171428D01*
X50514285Y-38123809D01*
X50419047Y-38076190D01*
X50228571Y-38028571D01*
X50133333Y-37980952D01*
X50085714Y-37933333D01*
X50038095Y-37838095D01*
X50038095Y-37742857D01*
X50085714Y-37647619D01*
X50133333Y-37600000D01*
X50228571Y-37552380D01*
X50466666Y-37552380D01*
X50609523Y-37600000D01*
X50942857Y-37552380D02*
X51561904Y-37552380D01*
X51228571Y-37933333D01*
X51371428Y-37933333D01*
X51466666Y-37980952D01*
X51514285Y-38028571D01*
X51561904Y-38123809D01*
X51561904Y-38361904D01*
X51514285Y-38457142D01*
X51466666Y-38504761D01*
X51371428Y-38552380D01*
X51085714Y-38552380D01*
X50990476Y-38504761D01*
X50942857Y-38457142D01*
X41148095Y-38504761D02*
X41290952Y-38552380D01*
X41529047Y-38552380D01*
X41624285Y-38504761D01*
X41671904Y-38457142D01*
X41719523Y-38361904D01*
X41719523Y-38266666D01*
X41671904Y-38171428D01*
X41624285Y-38123809D01*
X41529047Y-38076190D01*
X41338571Y-38028571D01*
X41243333Y-37980952D01*
X41195714Y-37933333D01*
X41148095Y-37838095D01*
X41148095Y-37742857D01*
X41195714Y-37647619D01*
X41243333Y-37600000D01*
X41338571Y-37552380D01*
X41576666Y-37552380D01*
X41719523Y-37600000D01*
X42100476Y-37647619D02*
X42148095Y-37600000D01*
X42243333Y-37552380D01*
X42481428Y-37552380D01*
X42576666Y-37600000D01*
X42624285Y-37647619D01*
X42671904Y-37742857D01*
X42671904Y-37838095D01*
X42624285Y-37980952D01*
X42052857Y-38552380D01*
X42671904Y-38552380D01*
X32258095Y-38504761D02*
X32400952Y-38552380D01*
X32639047Y-38552380D01*
X32734285Y-38504761D01*
X32781904Y-38457142D01*
X32829523Y-38361904D01*
X32829523Y-38266666D01*
X32781904Y-38171428D01*
X32734285Y-38123809D01*
X32639047Y-38076190D01*
X32448571Y-38028571D01*
X32353333Y-37980952D01*
X32305714Y-37933333D01*
X32258095Y-37838095D01*
X32258095Y-37742857D01*
X32305714Y-37647619D01*
X32353333Y-37600000D01*
X32448571Y-37552380D01*
X32686666Y-37552380D01*
X32829523Y-37600000D01*
X33781904Y-38552380D02*
X33210476Y-38552380D01*
X33496190Y-38552380D02*
X33496190Y-37552380D01*
X33400952Y-37695238D01*
X33305714Y-37790476D01*
X33210476Y-37838095D01*
M02*
